<svg width="30" height="30" viewBox="0 0 30 30" fill="none" xmlns="http://www.w3.org/2000/svg">
<rect y="0.00012207" width="30" height="30" rx="1" fill="#578760"/>
<path d="M7.66316 9.04025C7.24102 8.828 6.80863 8.62239 6.39723 8.3877C6.3968 8.12135 7.23489 6.94365 7.28372 6.72155C7.47121 5.86882 8.46683 5.2272 8.99825 4.50845C9.64919 3.62806 10.0155 3.55616 11.0014 2.90395C11.5896 2.90262 12.3184 2.32598 12.9066 2.32466C13.3691 2.32362 13.8236 2.38067 14.2842 2.37963C14.6998 2.3787 15.2364 2.35273 15.6394 2.46369C15.9542 2.55038 16.3613 2.51327 16.688 2.54521C17.0446 2.58006 17.3559 2.60279 17.7046 2.72036C18.4601 2.97503 18.9631 3.57404 19.6495 3.93544C21.4888 4.90391 22.469 6.76601 23.6211 8.39786C23.8479 8.71894 23.842 9.06528 23.8429 9.44261C23.8443 10.0752 23.9046 10.7668 23.7569 11.3849C23.5439 12.2761 22.9555 13.2585 22.3722 13.9463C21.0521 15.5031 19.0975 16.2063 17.1519 16.5712C16.4839 16.6964 15.4729 16.5155 14.9172 17.0117C14.7433 17.167 14.7433 17.1978 14.7439 17.4359L14.744 17.4509C14.7453 18.0334 14.9125 18.789 15.1095 19.3341C15.2056 19.5999 15.5153 20.6107 14.9253 20.612L13.7575 20.6146L12.1122 20.6183C11.9487 20.6187 11.718 20.3643 11.7175 20.1524C11.7166 19.7413 11.5978 19.715 11.6124 19.2968C11.6397 18.5111 11.6209 17.6825 11.7102 16.8963C11.809 16.0268 11.8097 15.8328 12.2222 15.0262C12.5696 14.3469 13.389 13.8848 14.007 13.9329C15.1159 14.0191 16.192 14.0756 17.3138 13.9899C17.9366 13.9424 18.6798 13.6269 18.9473 13.0152C19.2165 12.3995 19.2028 11.8639 19.2013 11.1951C19.1997 10.5066 19.1783 9.8678 19.0516 9.19208C18.8095 7.90133 17.3459 7.10607 16.2103 6.74341C14.9305 6.33468 13.3865 6.72391 12.2047 7.24279C11.3406 7.62217 10.5947 8.28419 10.0279 9.03493C9.88872 9.21922 9.61596 9.49074 9.6165 9.73269C9.61657 9.76414 9.63708 9.91075 9.5911 9.91341C9.39783 9.92458 9.17088 9.77537 9.00991 9.69534C8.56279 9.47304 8.10927 9.26455 7.66316 9.04025Z" fill="#C9FFD3"/>
<path d="M15.9951 24.5383C15.9824 24.5257 15.9724 24.5128 15.9633 24.5003C15.9854 24.467 16.0079 24.4338 16.0294 24.4003C16.1042 24.2838 16.2211 24.2607 16.2596 24.1215C16.354 23.7801 16.2828 23.4313 15.9115 23.309C15.6222 23.2137 15.3321 23.2024 15.033 23.2765C14.7961 23.3352 14.5746 23.4614 14.3255 23.4619C14.0322 23.4626 13.8488 23.4418 13.6145 23.249C13.5375 23.1857 13.4153 23.043 13.3139 23.0288C13.2463 23.0194 13.1692 23.0263 13.101 23.028C12.9855 23.0309 12.8473 23.0644 12.737 23.0978C12.6797 23.1152 12.5501 23.1074 12.5076 23.157C12.4493 23.225 12.3982 23.2799 12.3503 23.3591C12.3257 23.3999 12.2901 23.52 12.2404 23.5343C12.1977 23.5465 12.1485 23.5299 12.1045 23.541C12.0015 23.5668 11.9119 23.6198 11.8162 23.6629C11.6511 23.7373 11.5141 23.8864 11.4246 24.043C11.317 24.2315 11.2816 24.3457 11.3078 24.5501C11.3326 24.744 11.3899 24.97 11.5655 25.0896C11.6156 25.1237 11.8794 25.2689 11.8636 25.3404C11.8538 25.3849 11.7833 25.3752 11.7495 25.393C11.6993 25.4197 11.6858 25.5106 11.6704 25.5592C11.6321 25.6801 11.6582 25.838 11.6585 25.9652C11.6589 26.1368 11.6362 26.3065 11.6366 26.4785C11.6371 26.7244 11.626 26.9659 11.7869 27.1727C11.9253 27.3506 12.0366 27.5578 12.2853 27.5572C12.5323 27.5566 12.7729 27.5101 13.0188 27.5096C13.2323 27.5091 13.4439 27.6094 13.6539 27.6448C13.916 27.6889 14.1966 27.6791 14.4554 27.6213C14.9407 27.5127 15.1466 27.0311 15.4921 26.7239C15.6273 26.6038 15.8175 26.5705 15.9815 26.5096C16.1309 26.4542 16.191 26.2737 16.2423 26.1388C16.2859 26.0241 16.3353 25.9933 16.2751 25.8706C16.1732 25.663 16.0513 25.456 15.8813 25.2969C15.7984 25.2193 15.7347 25.2901 15.7425 25.1364C15.7488 25.011 15.9207 24.7802 16.0366 24.7399C16.18 24.6901 16.0678 24.6104 15.9951 24.5383Z" fill="#C9FFD3"/>
<path d="M8.96297 9.04025C8.54082 8.828 8.10844 8.62239 7.69704 8.3877C7.6966 8.12135 8.5347 6.94365 8.58353 6.72155C8.77101 5.86882 9.76663 5.2272 10.2981 4.50845C10.949 3.62806 11.3154 3.55616 12.3012 2.90395C12.8894 2.90262 13.6182 2.32598 14.2064 2.32466C14.6689 2.32362 15.1234 2.38067 15.584 2.37963C15.9997 2.3787 16.5362 2.35273 16.9392 2.46369C17.254 2.55038 17.6611 2.51327 17.9878 2.54521C18.3444 2.58006 18.6557 2.60279 19.0045 2.72036C19.7599 2.97503 20.2629 3.57404 20.9493 3.93544C22.7886 4.90391 23.7688 6.76601 24.921 8.39786C25.1477 8.71894 25.1418 9.06528 25.1427 9.44261C25.1441 10.0752 25.2044 10.7668 25.0567 11.3849C24.8437 12.2761 24.2553 13.2585 23.672 13.9463C22.3519 15.5031 20.3973 16.2063 18.4517 16.5712C17.7837 16.6964 16.7728 16.5155 16.217 17.0117C16.0431 17.167 16.0431 17.1978 16.0437 17.4359L16.0438 17.4509C16.0451 18.0334 16.2123 18.789 16.4093 19.3341C16.5054 19.5999 16.8151 20.6107 16.2251 20.612L15.0573 20.6146L13.412 20.6183C13.2485 20.6187 13.0178 20.3643 13.0173 20.1524C13.0164 19.7413 12.8976 19.715 12.9122 19.2968C12.9395 18.5111 12.9207 17.6825 13.01 16.8963C13.1088 16.0268 13.1095 15.8328 13.522 15.0262C13.8694 14.3469 14.6888 13.8848 15.3068 13.9329C16.4157 14.0191 17.4918 14.0756 18.6136 13.9899C19.2365 13.9424 19.9796 13.6269 20.2471 13.0152C20.5163 12.3995 20.5026 11.8639 20.5011 11.1951C20.4995 10.5066 20.4781 9.8678 20.3514 9.19208C20.1094 7.90133 18.6457 7.10607 17.5101 6.74341C16.2303 6.33468 14.6863 6.72391 13.5045 7.24279C12.6404 7.62217 11.8945 8.28419 11.3277 9.03493C11.1885 9.21922 10.9158 9.49074 10.9163 9.73269C10.9164 9.76414 10.9369 9.91075 10.8909 9.91341C10.6976 9.92458 10.4707 9.77537 10.3097 9.69534C9.86259 9.47304 9.40908 9.26455 8.96297 9.04025Z" fill="#92BE9A"/>
<path d="M17.2954 24.5383C17.2827 24.5257 17.2727 24.5128 17.2636 24.5003C17.2857 24.467 17.3082 24.4338 17.3297 24.4003C17.4045 24.2838 17.5214 24.2607 17.5599 24.1215C17.6543 23.7801 17.5831 23.4313 17.2118 23.309C16.9225 23.2137 16.6324 23.2024 16.3333 23.2765C16.0964 23.3352 15.8749 23.4614 15.6258 23.4619C15.3325 23.4626 15.1491 23.4418 14.9148 23.249C14.8378 23.1857 14.7156 23.043 14.6142 23.0288C14.5466 23.0194 14.4695 23.0263 14.4013 23.028C14.2858 23.0309 14.1476 23.0644 14.0373 23.0978C13.98 23.1152 13.8504 23.1074 13.8079 23.157C13.7496 23.225 13.6985 23.2799 13.6506 23.3591C13.6259 23.3999 13.5904 23.52 13.5407 23.5343C13.498 23.5465 13.4487 23.5299 13.4048 23.541C13.3018 23.5668 13.2122 23.6198 13.1165 23.6629C12.9514 23.7373 12.8143 23.8864 12.7249 24.043C12.6173 24.2315 12.5819 24.3457 12.6081 24.5501C12.6329 24.744 12.6902 24.97 12.8658 25.0896C12.9159 25.1237 13.1797 25.2689 13.1639 25.3404C13.154 25.3849 13.0836 25.3752 13.0498 25.393C12.9996 25.4197 12.9861 25.5106 12.9707 25.5592C12.9324 25.6801 12.9585 25.838 12.9588 25.9652C12.9592 26.1368 12.9365 26.3065 12.9369 26.4785C12.9374 26.7244 12.9263 26.9659 13.0872 27.1727C13.2256 27.3506 13.3369 27.5578 13.5856 27.5572C13.8325 27.5566 14.0732 27.5101 14.3191 27.5096C14.5326 27.5091 14.7442 27.6094 14.9542 27.6448C15.2162 27.6889 15.4969 27.6791 15.7557 27.6213C16.241 27.5127 16.4469 27.0311 16.7924 26.7239C16.9276 26.6038 17.1178 26.5705 17.2818 26.5096C17.4312 26.4542 17.4913 26.2737 17.5426 26.1388C17.5862 26.0241 17.6356 25.9933 17.5754 25.8706C17.4735 25.663 17.3516 25.456 17.1816 25.2969C17.0987 25.2193 17.035 25.2901 17.0428 25.1364C17.0491 25.011 17.221 24.7802 17.3368 24.7399C17.4803 24.6901 17.3681 24.6104 17.2954 24.5383Z" fill="#92BE9A"/>
</svg>
